<svg xmlns="http://www.w3.org/2000/svg" viewBox="0 0 348.89 39.81"><g id="Layer_2" data-name="Layer 2"><g id="Layer_1-2" data-name="Layer 1"><path d="M190.21.49l0,39.08H177.42l0-39.08ZM42.62,25.05,57.06,39.74l-16.39,0L26.22,25.07l-13.34,0V39.8H.05L0,11.38V.74H5.75l43-.06a5.75,5.75,0,0,1,5.75,5.74l0,12.87A5.75,5.75,0,0,1,48.73,25Zm-.45-12.24a2.48,2.48,0,0,0-2.47-2.47l-26.85,0v4.94l26.84,0a2.47,2.47,0,0,0,2.47-2.47m71-6.47,0,27.58a5.75,5.75,0,0,1-5.74,5.75l-42.95.06A5.76,5.76,0,0,1,58.8,34l0-27.58A5.74,5.74,0,0,1,64.51.65L107.45.6a5.74,5.74,0,0,1,5.76,5.74m-12.27,21.1,0-14.71a2.45,2.45,0,0,0-2.47-2.46l-24.37,0a2.46,2.46,0,0,0-2.46,2.47l0,14.71A2.47,2.47,0,0,0,74.11,30l24.37,0a2.45,2.45,0,0,0,2.46-2.47M159.56.53l0,26.68L134.48.56H130.8l-11.64,0H118L118,39.66l12.84,0,0-26.68,25.1,26.65h16.53l0-39.08ZM249.1.41l-12.84,0,0,26.68L211.18.46H207.5l-11.64,0h-1.2l.05,39.08,12.84,0,0-26.68,25.1,26.65h16.53ZM300.28,32a28.79,28.79,0,0,0,4.7,2.28l-1.59,4.12a31,31,0,0,1-16.46-14.06h-9.65v9.16c3.64-.43,7.6-1.21,9.93-2.58l2.23,3.81c-6.13,3.6-18.83,3.64-19.37,3.64V33.91c.7,0,1.67,0,2.8-.09V4.27h13.31V.41h4.42V4.27h12A2.43,2.43,0,0,1,305,6.69v14a3.65,3.65,0,0,1-3.64,3.64h-9.27a24.9,24.9,0,0,0,4.34,4.85,18.88,18.88,0,0,0,5.46-4.5l3.42,2.79a22.91,22.91,0,0,1-5,4.52m-23-19.9h23.3V8.68h-23.3Zm23.3,4.41h-23.3v3.42h23.3Zm29.51-6.28V1.76h-4.41V7c0,12.09-7.05,22.21-18.86,27.08l1.68,4.07a34.56,34.56,0,0,0,19.06-18.44,28.92,28.92,0,0,0,4.74,7.79,38.65,38.65,0,0,0,14.91,10.66l1.68-4.09C335,28.36,330.09,18,330.09,10.18M258.91,13l8.27,6.21,2.65-3.53-8.27-6.21Zm10.92-6.83L261.56,0l-2.65,3.53,8.26,6.21ZM257.68,36.74l3.9,2.06,7.69-14.56-3.91-2.06Z"/></g></g></svg>